<svg xmlns="http://www.w3.org/2000/svg" version="1.1" xmlns:xlink="http://www.w3.org/1999/xlink" width="1000" height="1000"><g clip-path="url(#SvgjsClipPath1194)"><rect width="1000" height="1000" fill="#000000"></rect><g transform="matrix(15.625,0,0,15.625,250,250)"><svg xmlns="http://www.w3.org/2000/svg" version="1.2" viewBox="0 0 32 32" width="32" height="32"><style>
		.s0 { fill: #ffffff } 
	</style><path class="s0" d="m30.18 3.82q-0.63-0.64-1.46-0.98-0.82-0.34-1.72-0.34-0.89 0-1.72 0.34-0.83 0.34-1.46 0.98-0.61 0.61-0.95 1.41-0.34 0.79-0.37 1.66-0.02 0.87 0.29 1.68 0.3 0.81 0.88 1.45l-2.98 5.54q-0.33-0.06-0.67-0.06-0.34 0-0.67 0.05-0.34 0.05-0.66 0.15-0.32 0.1-0.62 0.24l-2-2c0.45-0.96 0.56-2.05 0.29-3.08-0.26-1.02-0.89-1.93-1.75-2.54-0.87-0.61-1.93-0.9-2.99-0.81-1.05 0.09-2.05 0.55-2.8 1.3q-0.61 0.62-0.95 1.41-0.34 0.8-0.36 1.67-0.02 0.87 0.28 1.68 0.3 0.81 0.88 1.45l-2.98 5.54q-0.53-0.09-1.06-0.04-0.53 0.04-1.03 0.2-0.51 0.17-0.96 0.45-0.45 0.27-0.83 0.65c-1.27 1.27-1.66 3.18-0.99 4.85 0.67 1.67 2.27 2.79 4.07 2.83 1.8 0.04 3.45-0.99 4.2-2.63 0.75-1.63 0.45-3.56-0.76-4.89l2.98-5.54q0.08 0.02 0.17 0.03 0.09 0.01 0.17 0.02 0.09 0 0.18 0.01 0.08 0 0.17 0 0.25 0 0.5-0.03 0.25-0.03 0.49-0.08 0.25-0.06 0.49-0.14 0.23-0.08 0.46-0.19l2 2c-0.72 1.5-0.55 3.28 0.44 4.61 0.98 1.34 2.63 2.03 4.27 1.78 1.65-0.24 3.03-1.37 3.59-2.93 0.56-1.57 0.21-3.31-0.91-4.54l2.98-5.54q0.09 0.02 0.17 0.03 0.09 0.01 0.18 0.01 0.08 0.01 0.17 0.02 0.08 0 0.17 0c0.89 0 1.76-0.26 2.5-0.76 0.74-0.49 1.32-1.2 1.66-2.02 0.34-0.82 0.43-1.72 0.25-2.6-0.17-0.87-0.6-1.67-1.23-2.3zm-19.25 7.12c0.29-0.28 0.67-0.43 1.07-0.43 0.39 0 0.77 0.15 1.06 0.44 0.28 0.28 0.44 0.66 0.44 1.06 0 0.39-0.16 0.78-0.44 1.06-0.29 0.28-0.67 0.44-1.06 0.44-0.4 0-0.78-0.16-1.07-0.44-0.28-0.28-0.43-0.67-0.43-1.06 0-0.4 0.15-0.78 0.43-1.06zm-4.87 15.12c-0.43 0.43-1.07 0.56-1.63 0.32-0.56-0.23-0.93-0.78-0.93-1.38 0-0.61 0.37-1.15 0.93-1.39 0.56-0.23 1.2-0.1 1.63 0.33q0.21 0.21 0.32 0.48 0.12 0.28 0.12 0.58 0 0.29-0.12 0.57-0.11 0.28-0.32 0.49zm15-5c-0.43 0.42-1.07 0.55-1.63 0.32-0.56-0.23-0.93-0.78-0.93-1.39 0-0.6 0.37-1.15 0.93-1.38 0.56-0.23 1.2-0.11 1.63 0.32q0.21 0.21 0.32 0.49 0.12 0.27 0.12 0.57 0 0.3-0.11 0.58-0.12 0.27-0.33 0.48zm7-13c-0.43 0.43-1.07 0.56-1.63 0.32-0.56-0.23-0.93-0.77-0.93-1.38 0-0.61 0.37-1.15 0.93-1.39 0.56-0.23 1.2-0.1 1.63 0.33q0.21 0.21 0.33 0.48 0.11 0.28 0.11 0.58 0 0.29-0.11 0.57-0.11 0.27-0.32 0.49z"></path></svg></g></g><defs><clipPath id="SvgjsClipPath1194"><rect width="1000" height="1000" x="0" y="0" rx="350" ry="350"></rect></clipPath></defs></svg>